<svg xmlns="http://www.w3.org/2000/svg" width="32" height="32" viewBox="0 0 94 94" fill="none">
    <path d="M59.9264 57.3955H34.0737L23.0864 76.4232C24.162 77.043 25.3974 77.3868 26.6849 77.3868H67.3112C68.5987 77.3868 69.8341 77.043 70.9097 76.4232L59.9264 57.3955Z" fill="#4285F4"></path>
    <path d="M70.9139 76.4232C71.9894 75.8035 72.905 74.9039 73.5488 73.7884L80.9376 60.9939C81.5813 59.8824 81.9011 58.639 81.9011 57.3955H59.9307L70.9139 76.4232Z" fill="#F72A25"></path>
    <path d="M20.4514 73.7884C21.0951 74.8999 22.0107 75.7995 23.0863 76.4232L34.0735 57.3955H12.103C12.103 58.639 12.4229 59.8824 13.0666 60.9939L20.4514 73.7884Z" fill="#1967D2"></path>
    <path d="M46.9999 35.0053L36.0126 15.9775C34.9371 16.5973 34.0215 17.4969 33.3778 18.6124L23.2222 36.2048L13.0666 53.7971C12.4229 54.9086 12.103 56.1521 12.103 57.3956H34.0735L46.9999 35.0053Z" fill="#34A853"></path>
    <path d="M46.9999 35.0055L57.9872 15.9777C56.9116 15.358 55.6762 15.0142 54.3887 15.0142H39.6111C38.3237 15.0142 37.0882 15.358 36.0127 15.9777L46.9999 35.0055Z" fill="#188038"></path>
    <path d="M70.7777 36.2048L60.6221 18.6124C59.9784 17.5009 59.0628 16.6013 57.9872 15.9775L47 35.0053L59.9264 57.3956H81.8969C81.8969 56.1521 81.577 54.9086 80.9333 53.7971L70.7777 36.2048Z" fill="#FBBC04"></path>
</svg>